Coordinates
version=1
nRows=13
nColumns=22
inDegrees=yes

Units are S.I. units (second, meters, Newtons, ...)
If the header above contains a line with 'inDegrees', this indicates whether rotational values are in degrees (yes) or radians (no).

endheader
time	pelvis_tilt	pelvis_list	pelvis_rotation	pelvis_tx	pelvis_ty	pelvis_tz	hip_flexion_r	hip_adduction_r	hip_rotation_r	knee_angle_r	ankle_angle_r	subtalar_angle_r	hip_flexion_l	hip_adduction_l	hip_rotation_l	knee_angle_l	ankle_angle_l	subtalar_angle_l	lumbar_extension	lumbar_bending	lumbar_rotation
      2.44000000	      8.33734047	     -2.48249769	     13.57568648	     -0.39313512	      0.90176296	      0.05764565	     21.56447336	      1.46748657	    -14.14826853	    -14.28775335	     -0.14816359	      8.46503326	    -23.08376209	     -4.90096227	     -2.28491942	    -19.23243281	     31.19008365	     -7.90465681	    -13.64103488	      6.44035151	    -18.13921773
      2.45000000	      8.39332770	     -3.16271629	     13.61817854	     -0.37943703	      0.90025719	      0.05824222	     21.89764028	      2.34633477	    -14.00895500	    -15.81730963	     -1.13482538	      7.12517017	    -23.49792496	     -5.82359574	     -2.24208930	    -20.03638270	     30.54916169	     -7.47839721	    -13.30958458	      7.19648858	    -17.98155090
      2.46000000	      8.41597145	     -3.89173291	     13.60185544	     -0.36542123	      0.89907045	      0.05897235	     22.25807392	      3.29388509	    -13.84419101	    -17.46838269	     -2.10586703	      5.76678013	    -23.83952087	     -6.76530329	     -2.22052199	    -20.92047673	     29.65846877	     -6.99663643	    -12.89818382	      7.98266273	    -17.79366058
      2.47000000	      8.43343429	     -4.60598170	     13.56412684	     -0.35122863	      0.89829919	      0.05978104	     22.57293736	      4.24899211	    -13.62661806	    -19.13659041	     -2.88137669	      4.38199284	    -24.07760986	     -7.68277325	     -2.15548884	    -21.98519523	     28.34670453	     -6.40741173	    -12.47266630	      8.73641284	    -17.61325738
      2.48000000	      8.43680826	     -5.31972436	     13.49285814	     -0.33681825	      0.89793060	      0.06066430	     22.82847758	      5.22975885	    -13.37069346	    -20.74636802	     -3.40748418	      3.15132407	    -24.21916939	     -8.58053493	     -2.05386488	    -23.18227709	     26.69792337	     -5.75120185	    -12.00645032	      9.47424481	    -17.43769615
      2.49000000	      8.45544081	     -5.99319356	     13.40983204	     -0.32229245	      0.89801090	      0.06158676	     22.96223530	      6.19540426	    -13.10292463	    -22.23805534	     -3.63850770	      2.09493978	    -24.24191504	     -9.43726168	     -1.90791775	    -24.58626207	     24.65332216	     -5.02091334	    -11.55311043	     10.16013984	    -17.28272076
      2.50000000	      8.48697758	     -6.60340985	     13.32913715	     -0.30773774	      0.89852849	      0.06252045	     22.94704159	      7.11735935	    -12.83025410	    -23.55251971	     -3.61002057	      1.24588171	    -24.10510736	    -10.23587972	     -1.70044155	    -26.23121026	     22.20217976	     -4.23579620	    -11.12093942	     10.76951193	    -17.16568863
      2.51000000	      8.56044857	     -7.12536825	     13.28452149	     -0.29319291	      0.89948907	      0.06338189	     22.73563155	      7.94964413	    -12.64905307	    -24.67805350	     -3.23586886	      0.57295019	    -23.82945193	    -10.96038677	     -1.36178344	    -28.09480890	     19.34025321	     -3.39699903	    -10.74345479	     11.28707494	    -17.08415811
      2.52000000	      8.66512183	     -7.56645385	     13.27786200	     -0.27878526	      0.90080972	      0.06418364	     22.33726845	      8.69605474	    -12.55394291	    -25.58665304	     -2.62342794	      0.05984362	    -23.35241303	    -11.62546888	     -0.93906621	    -30.22831267	     16.16472861	     -2.54833989	    -10.42448902	     11.71938678	    -17.03383311
      2.53000000	      8.78975167	     -7.93221407	     13.31803542	     -0.26460858	      0.90240018	      0.06493052	     21.77170423	      9.35857818	    -12.53216778	    -26.27226506	     -1.84126452	     -0.31623331	    -22.64147496	    -12.23768959	     -0.42031824	    -32.63233672	     12.77187921	     -1.73496154	    -10.16309941	     12.07075826	    -17.00462009
      2.54000000	      8.91672980	     -8.24603741	     13.40657545	     -0.25071446	      0.90415720	      0.06561550	     21.07464477	      9.95478784	    -12.59374764	    -26.74204376	     -0.94787787	     -0.58982303	    -21.68003170	    -12.80699627	      0.21508078	    -35.27189779	      9.29988414	     -0.98257190	     -9.94159316	     12.36392334	    -16.94380259
      2.55000000	      9.04572627	     -8.48486832	     13.57682374	     -0.23723157	      0.90600730	      0.06617728	     20.27720996	     10.44190637	    -12.77377717	    -27.04387959	      0.00834762	     -0.73985864	    -20.45127496	    -13.31062011	      1.00742588	    -38.13677246	      5.93896750	     -0.47612592	     -9.77742945	     12.58030084	    -16.91288335
      2.56000000	      9.18779479	     -8.68988816	     13.83527518	     -0.22419127	      0.90788392	      0.06661271	     19.39294579	     10.86903235	    -13.07219032	    -27.18224578	      0.95954496	     -0.81055586	    -18.97615234	    -13.78859734	      1.92574823	    -41.18396413	      2.87572891	     -0.25629995	     -9.68162030	     12.77215255	    -16.89704683
